<svg width="80" height="82" viewBox="0 0 80 82" fill="none" xmlns="http://www.w3.org/2000/svg">
<path d="M52.0429 40.7507C54.4403 43.2298 55.7801 46.1939 56.7393 50.2458L57.2009 52.4091L57.5857 54.4908C58.0832 57.2197 58.3825 58.463 58.8221 59.4583C59.9689 62.0543 62.0127 64.7459 64.9923 67.5038C66.6278 69.0175 66.7376 71.5838 65.2376 73.2358C63.7376 74.8878 61.1958 75 59.5604 73.4863C55.8203 70.0246 53.1147 66.4612 51.4826 62.7666C50.8497 61.3339 50.4713 60.001 50.03 57.7961L49.2722 53.7566L49.1313 53.0689C48.4423 49.7954 47.6112 47.7853 46.2916 46.4207C43.8859 43.933 38.0468 44.6263 36.622 46.9004C34.5276 50.2433 33.9786 56.0591 35.6924 61.9584C37.0591 66.6628 38.8734 71.2934 41.1374 75.8523C42.1319 77.8549 41.3298 80.293 39.346 81.2981C37.3622 82.3032 34.9478 81.4946 33.9533 79.4921C31.4758 74.5032 29.4843 69.4204 27.981 64.2458C25.6496 56.2207 26.4256 48.0009 29.8312 42.5651C34.006 35.9017 45.979 34.4801 52.0429 40.7507ZM41.9867 49.4378C44.2046 49.3628 46.0624 51.1304 46.1362 53.3858C46.3364 59.5084 48.2948 65.4273 51.7556 70.4181L52.5202 71.4731L53.7264 73.0668C55.0799 74.8551 54.7516 77.4207 52.993 78.7971C51.3697 80.0677 49.0952 79.8809 47.6902 78.4381L47.358 78.0513L46.1518 76.4576C41.1893 69.901 38.3747 61.9265 38.1043 53.6574C38.0306 51.402 39.7688 49.5128 41.9867 49.4378ZM26.3175 29.3674C35.1609 22.7089 46.712 23.0697 54.5105 28.1673C58.3733 30.6922 61.3155 33.6535 63.2815 37.0637C64.4039 39.0105 63.7618 41.5139 61.8474 42.6553C59.933 43.7966 57.4712 43.1436 56.3488 41.1968C55.0607 38.9625 53.018 36.9066 50.1652 35.0418C45.0225 31.6803 37.0803 31.4322 31.0995 35.9353C24.8332 40.6534 22.1759 48.7932 22.9714 57.4185C23.4217 62.3017 24.8716 67.2482 27.3427 72.2731C28.3352 74.2914 27.5309 76.7459 25.5461 77.7553C23.5613 78.7647 21.1476 77.9467 20.155 75.9283C17.2518 70.0246 15.5164 64.104 14.9702 58.1815C13.9343 46.949 17.5087 35.9998 26.3175 29.3674ZM68.8024 50.4488C68.9182 52.7387 69.4648 54.5779 70.4117 56.0393C71.3023 57.4136 72.0137 58.0643 72.3725 58.1746C74.4967 58.8278 75.698 61.1084 75.0558 63.2685C74.4135 65.4286 72.1708 66.6503 70.0467 65.9971C67.5883 65.2413 65.5311 63.3597 63.7013 60.5358C61.9279 57.799 60.9631 54.5522 60.7767 50.8687C60.6627 48.6149 62.3669 46.6939 64.5831 46.578C66.7993 46.462 68.6884 48.195 68.8024 50.4488ZM33.9194 16.1484C34.8302 18.2063 33.9281 20.6254 31.9044 21.5516C24.6971 24.8504 19.4186 29.5295 15.9533 35.6313C11.6038 43.2898 10.4261 52.2766 11.4011 59.8313C11.6899 62.0688 10.1403 64.1207 7.93997 64.4143C5.73968 64.708 3.7219 63.1322 3.43314 60.8946C2.24617 51.6972 3.65518 40.9451 8.99418 31.5442C13.3292 23.911 19.9051 18.0819 28.6061 14.0994C30.6297 13.1732 33.0085 14.0906 33.9194 16.1484ZM43.8174 11.932C51.4331 12.0907 58.9705 15.6291 66.3984 22.3497C73.91 29.1462 78.4338 38.3789 79.9632 49.8633C80.261 52.0996 78.7197 54.1579 76.5206 54.4608C74.3215 54.7636 72.2974 53.1962 71.9996 50.96C70.7184 41.3388 67.0729 33.8987 61.0565 28.4552C54.9564 22.9359 49.1656 20.2174 43.6527 20.1025C41.4341 20.0563 39.6723 18.1898 39.7178 15.9336C39.7632 13.6773 41.5987 11.8858 43.8174 11.932ZM14.4136 12.8723C15.8896 14.5576 15.7426 17.1404 14.0855 18.6413C13.039 19.5891 11.9359 20.7256 10.7805 22.0501C9.71849 23.2675 8.61915 24.8644 7.49826 26.8379C6.38833 28.792 3.93076 29.4612 2.00912 28.3325C0.0874687 27.2038 -0.570564 24.7046 0.539359 22.7505C1.91516 20.3282 3.3197 18.288 4.76876 16.6268C6.12437 15.0729 7.44691 13.7103 8.74062 12.5386C10.3978 11.0377 12.9377 11.1871 14.4136 12.8723ZM42.0813 0.0644461C51.0894 0.493537 59.4443 2.49655 65.6446 7.36543C67.401 8.7447 67.7253 11.3108 66.369 13.0969C65.0127 14.8831 62.4893 15.2129 60.7329 13.8336C55.9 10.0385 49.1327 8.58153 41.7053 8.22773C34.2483 7.87252 28.1826 9.2187 23.4171 12.1951C21.5262 13.3761 19.0517 12.7747 17.8903 10.8517C16.7289 8.92878 17.3203 6.41247 19.2113 5.23141C25.4492 1.33536 33.1029 -0.363236 42.0813 0.0644461Z" fill="#EE2F5D"/>
</svg>
